<mxfile host="Electron" modified="2024-03-04T08:13:05.360Z" agent="Mozilla/5.0 (Windows NT 10.0; Win64; x64) AppleWebKit/537.36 (KHTML, like Gecko) draw.io/23.1.5 Chrome/120.0.6099.109 Electron/28.1.0 Safari/537.36" etag="k1eVdCfdX_rIhCZ1cWbW" version="23.1.5" type="device">
  <diagram id="prtHgNgQTEPvFCAcTncT" name="Page-1">
    <mxGraphModel dx="2261" dy="844" grid="1" gridSize="10" guides="1" tooltips="1" connect="1" arrows="1" fold="1" page="1" pageScale="1" pageWidth="827" pageHeight="1169" math="0" shadow="0">
      <root>
        <mxCell id="0" />
        <mxCell id="1" parent="0" />
        <mxCell id="v-aptwxeJdGmoN24yev--1" value="Crawler" style="html=1;whiteSpace=wrap;" parent="1" vertex="1">
          <mxGeometry x="10" y="530" width="110" height="70" as="geometry" />
        </mxCell>
        <mxCell id="v-aptwxeJdGmoN24yev--2" value="Crawler" style="html=1;whiteSpace=wrap;" parent="1" vertex="1">
          <mxGeometry x="30" y="515" width="110" height="70" as="geometry" />
        </mxCell>
        <mxCell id="v-aptwxeJdGmoN24yev--3" value="Crawler" style="html=1;whiteSpace=wrap;" parent="1" vertex="1">
          <mxGeometry x="50" y="500" width="110" height="70" as="geometry" />
        </mxCell>
        <mxCell id="v-aptwxeJdGmoN24yev--4" value="" style="html=1;whiteSpace=wrap;" parent="1" vertex="1">
          <mxGeometry x="70" y="490" width="110" height="70" as="geometry" />
        </mxCell>
        <mxCell id="v-aptwxeJdGmoN24yev--5" value="Distributed Crawler" style="text;align=center;fontStyle=1;verticalAlign=middle;spacingLeft=3;spacingRight=3;strokeColor=none;rotatable=0;points=[[0,0.5],[1,0.5]];portConstraint=eastwest;html=1;" parent="1" vertex="1">
          <mxGeometry x="10" y="610" width="120" height="26" as="geometry" />
        </mxCell>
        <mxCell id="v-aptwxeJdGmoN24yev--6" value="" style="shape=cylinder3;whiteSpace=wrap;html=1;boundedLbl=1;backgroundOutline=1;size=15;" parent="1" vertex="1">
          <mxGeometry x="-140" y="525" width="60" height="80" as="geometry" />
        </mxCell>
        <mxCell id="v-aptwxeJdGmoN24yev--7" value="Crawler&#39;s Database" style="text;align=center;fontStyle=1;verticalAlign=middle;spacingLeft=3;spacingRight=3;strokeColor=none;rotatable=0;points=[[0,0.5],[1,0.5]];portConstraint=eastwest;html=1;" parent="1" vertex="1">
          <mxGeometry x="-190" y="610" width="130" height="26" as="geometry" />
        </mxCell>
        <mxCell id="v-aptwxeJdGmoN24yev--10" value="&lt;b&gt;WEB&lt;/b&gt;" style="ellipse;shape=cloud;whiteSpace=wrap;html=1;" parent="1" vertex="1">
          <mxGeometry x="35" y="320" width="140" height="110" as="geometry" />
        </mxCell>
        <mxCell id="v-aptwxeJdGmoN24yev--11" value="" style="endArrow=classic;html=1;rounded=0;entryX=0.55;entryY=0.95;entryDx=0;entryDy=0;entryPerimeter=0;exitX=0.373;exitY=0.014;exitDx=0;exitDy=0;exitPerimeter=0;" parent="1" source="v-aptwxeJdGmoN24yev--4" target="v-aptwxeJdGmoN24yev--10" edge="1">
          <mxGeometry width="50" height="50" relative="1" as="geometry">
            <mxPoint x="60" y="720" as="sourcePoint" />
            <mxPoint x="110" y="670" as="targetPoint" />
          </mxGeometry>
        </mxCell>
        <mxCell id="v-aptwxeJdGmoN24yev--12" value="" style="endArrow=none;html=1;rounded=0;entryX=0;entryY=0.5;entryDx=0;entryDy=0;exitX=1;exitY=0.5;exitDx=0;exitDy=0;exitPerimeter=0;" parent="1" source="v-aptwxeJdGmoN24yev--6" target="v-aptwxeJdGmoN24yev--1" edge="1">
          <mxGeometry width="50" height="50" relative="1" as="geometry">
            <mxPoint x="-100" y="850" as="sourcePoint" />
            <mxPoint x="-50" y="800" as="targetPoint" />
          </mxGeometry>
        </mxCell>
        <mxCell id="v-aptwxeJdGmoN24yev--13" value="Crawler" style="html=1;whiteSpace=wrap;" parent="1" vertex="1">
          <mxGeometry x="270" y="750" width="110" height="70" as="geometry" />
        </mxCell>
        <mxCell id="v-aptwxeJdGmoN24yev--14" value="Crawler" style="html=1;whiteSpace=wrap;" parent="1" vertex="1">
          <mxGeometry x="290" y="735" width="110" height="70" as="geometry" />
        </mxCell>
        <mxCell id="v-aptwxeJdGmoN24yev--15" value="Crawler" style="html=1;whiteSpace=wrap;" parent="1" vertex="1">
          <mxGeometry x="310" y="720" width="110" height="70" as="geometry" />
        </mxCell>
        <mxCell id="v-aptwxeJdGmoN24yev--16" value="" style="html=1;whiteSpace=wrap;" parent="1" vertex="1">
          <mxGeometry x="330" y="700" width="110" height="70" as="geometry" />
        </mxCell>
        <mxCell id="v-aptwxeJdGmoN24yev--17" value="Distributed Indexer" style="text;align=center;fontStyle=1;verticalAlign=middle;spacingLeft=3;spacingRight=3;strokeColor=none;rotatable=0;points=[[0,0.5],[1,0.5]];portConstraint=eastwest;html=1;" parent="1" vertex="1">
          <mxGeometry x="275" y="825" width="130" height="26" as="geometry" />
        </mxCell>
        <mxCell id="v-aptwxeJdGmoN24yev--18" value="" style="shape=cylinder3;whiteSpace=wrap;html=1;boundedLbl=1;backgroundOutline=1;size=15;" parent="1" vertex="1">
          <mxGeometry x="530" y="715" width="60" height="80" as="geometry" />
        </mxCell>
        <mxCell id="v-aptwxeJdGmoN24yev--19" value="WEB-index" style="text;align=center;fontStyle=1;verticalAlign=middle;spacingLeft=3;spacingRight=3;strokeColor=none;rotatable=0;points=[[0,0.5],[1,0.5]];portConstraint=eastwest;html=1;" parent="1" vertex="1">
          <mxGeometry x="520" y="804" width="80" height="26" as="geometry" />
        </mxCell>
        <mxCell id="v-aptwxeJdGmoN24yev--23" value="" style="endArrow=none;html=1;rounded=0;entryX=1;entryY=0.75;entryDx=0;entryDy=0;exitX=0;exitY=0;exitDx=0;exitDy=0;edgeStyle=orthogonalEdgeStyle;" parent="1" source="v-aptwxeJdGmoN24yev--13" target="v-aptwxeJdGmoN24yev--4" edge="1">
          <mxGeometry width="50" height="50" relative="1" as="geometry">
            <mxPoint x="190" y="800" as="sourcePoint" />
            <mxPoint x="240" y="750" as="targetPoint" />
            <Array as="points">
              <mxPoint x="280" y="750" />
              <mxPoint x="280" y="550" />
              <mxPoint x="180" y="550" />
            </Array>
          </mxGeometry>
        </mxCell>
        <mxCell id="v-aptwxeJdGmoN24yev--25" value="" style="endArrow=none;html=1;rounded=0;exitX=1.009;exitY=0.886;exitDx=0;exitDy=0;entryX=-0.033;entryY=0.588;entryDx=0;entryDy=0;entryPerimeter=0;exitPerimeter=0;" parent="1" source="v-aptwxeJdGmoN24yev--16" target="v-aptwxeJdGmoN24yev--18" edge="1">
          <mxGeometry width="50" height="50" relative="1" as="geometry">
            <mxPoint x="515" y="920" as="sourcePoint" />
            <mxPoint x="520" y="780" as="targetPoint" />
          </mxGeometry>
        </mxCell>
        <mxCell id="v-aptwxeJdGmoN24yev--27" value="&lt;b&gt;Searcher&lt;/b&gt;" style="html=1;whiteSpace=wrap;" parent="1" vertex="1">
          <mxGeometry x="505" y="530" width="110" height="70" as="geometry" />
        </mxCell>
        <mxCell id="v-aptwxeJdGmoN24yev--28" value="" style="endArrow=classic;html=1;rounded=0;exitX=0.5;exitY=1;exitDx=0;exitDy=0;entryX=0.5;entryY=0;entryDx=0;entryDy=0;entryPerimeter=0;" parent="1" source="v-aptwxeJdGmoN24yev--27" target="v-aptwxeJdGmoN24yev--18" edge="1">
          <mxGeometry width="50" height="50" relative="1" as="geometry">
            <mxPoint x="640" y="870" as="sourcePoint" />
            <mxPoint x="690" y="820" as="targetPoint" />
          </mxGeometry>
        </mxCell>
        <mxCell id="v-aptwxeJdGmoN24yev--29" value="&lt;b&gt;Search web-site&lt;/b&gt;" style="html=1;whiteSpace=wrap;" parent="1" vertex="1">
          <mxGeometry x="690" y="530" width="110" height="70" as="geometry" />
        </mxCell>
        <mxCell id="v-aptwxeJdGmoN24yev--30" value="" style="endArrow=classic;html=1;rounded=0;entryX=1;entryY=0.5;entryDx=0;entryDy=0;exitX=0;exitY=0.5;exitDx=0;exitDy=0;" parent="1" source="v-aptwxeJdGmoN24yev--29" target="v-aptwxeJdGmoN24yev--27" edge="1">
          <mxGeometry width="50" height="50" relative="1" as="geometry">
            <mxPoint x="620" y="700" as="sourcePoint" />
            <mxPoint x="670" y="650" as="targetPoint" />
          </mxGeometry>
        </mxCell>
        <mxCell id="v-aptwxeJdGmoN24yev--31" value="&lt;b&gt;Communitcation channel&lt;/b&gt;&lt;div&gt;&lt;br&gt;&lt;/div&gt;" style="text;html=1;align=center;verticalAlign=middle;whiteSpace=wrap;rounded=0;rotation=0;" parent="1" vertex="1">
          <mxGeometry x="280" y="560" width="120" height="40" as="geometry" />
        </mxCell>
        <mxCell id="v-aptwxeJdGmoN24yev--32" value="&lt;b&gt;Administrative panel&lt;/b&gt;" style="html=1;whiteSpace=wrap;" parent="1" vertex="1">
          <mxGeometry x="230" y="370" width="110" height="70" as="geometry" />
        </mxCell>
        <mxCell id="KLZsTYwdR1jVz5Ypztcj-1" value="" style="shape=cylinder3;whiteSpace=wrap;html=1;boundedLbl=1;backgroundOutline=1;size=15;" parent="1" vertex="1">
          <mxGeometry x="40" y="715" width="60" height="80" as="geometry" />
        </mxCell>
        <mxCell id="KLZsTYwdR1jVz5Ypztcj-2" value="&lt;b&gt;LogsDatabase&lt;/b&gt;" style="text;html=1;align=center;verticalAlign=middle;whiteSpace=wrap;rounded=0;" parent="1" vertex="1">
          <mxGeometry x="10" y="795" width="110" height="30" as="geometry" />
        </mxCell>
        <mxCell id="KLZsTYwdR1jVz5Ypztcj-3" value="" style="endArrow=none;html=1;rounded=0;exitX=1;exitY=0;exitDx=0;exitDy=27.5;exitPerimeter=0;" parent="1" source="KLZsTYwdR1jVz5Ypztcj-1" edge="1">
          <mxGeometry width="50" height="50" relative="1" as="geometry">
            <mxPoint x="80" y="940" as="sourcePoint" />
            <mxPoint x="280" y="550" as="targetPoint" />
          </mxGeometry>
        </mxCell>
        <mxCell id="KLZsTYwdR1jVz5Ypztcj-4" value="" style="endArrow=none;html=1;rounded=0;entryX=0;entryY=0.25;entryDx=0;entryDy=0;" parent="1" target="v-aptwxeJdGmoN24yev--27" edge="1">
          <mxGeometry width="50" height="50" relative="1" as="geometry">
            <mxPoint x="280" y="550" as="sourcePoint" />
            <mxPoint x="300" y="960" as="targetPoint" />
          </mxGeometry>
        </mxCell>
        <mxCell id="KLZsTYwdR1jVz5Ypztcj-6" value="" style="endArrow=none;html=1;rounded=0;entryX=0.5;entryY=1;entryDx=0;entryDy=0;" parent="1" target="v-aptwxeJdGmoN24yev--32" edge="1">
          <mxGeometry width="50" height="50" relative="1" as="geometry">
            <mxPoint x="280" y="550" as="sourcePoint" />
            <mxPoint x="130" y="900" as="targetPoint" />
          </mxGeometry>
        </mxCell>
        <mxCell id="KLZsTYwdR1jVz5Ypztcj-7" value="&lt;b&gt;WEB&lt;/b&gt;" style="ellipse;shape=cloud;whiteSpace=wrap;html=1;" parent="1" vertex="1">
          <mxGeometry x="670" y="370" width="140" height="110" as="geometry" />
        </mxCell>
        <mxCell id="KLZsTYwdR1jVz5Ypztcj-8" value="" style="endArrow=classic;html=1;rounded=0;exitX=0.55;exitY=0.95;exitDx=0;exitDy=0;exitPerimeter=0;entryX=0.5;entryY=0;entryDx=0;entryDy=0;" parent="1" source="KLZsTYwdR1jVz5Ypztcj-7" target="v-aptwxeJdGmoN24yev--29" edge="1">
          <mxGeometry width="50" height="50" relative="1" as="geometry">
            <mxPoint x="760" y="720" as="sourcePoint" />
            <mxPoint x="810" y="670" as="targetPoint" />
          </mxGeometry>
        </mxCell>
      </root>
    </mxGraphModel>
  </diagram>
</mxfile>
